<?xml version="1.0" encoding="UTF-8" standalone="no"?>
<!-- Generator: Adobe Illustrator 19.0.0, SVG Export Plug-In . SVG Version: 6.00 Build 0)  -->

<svg
   xmlns:dc="http://purl.org/dc/elements/1.1/"
   xmlns:cc="http://creativecommons.org/ns#"
   xmlns:rdf="http://www.w3.org/1999/02/22-rdf-syntax-ns#"
   xmlns:svg="http://www.w3.org/2000/svg"
   xmlns="http://www.w3.org/2000/svg"
   xmlns:sodipodi="http://sodipodi.sourceforge.net/DTD/sodipodi-0.dtd"
   xmlns:inkscape="http://www.inkscape.org/namespaces/inkscape"
   version="1.1"
   id="Capa_1"
   x="0px"
   y="0px"
   viewBox="0 0 512 512"
   style="enable-background:new 0 0 512 512;"
   xml:space="preserve"
   width="512"
   height="512"
   sodipodi:docname="antarctica.svg"
   inkscape:version="0.92.1 r15371"><metadata
     id="metadata21"><rdf:RDF><cc:Work
         rdf:about=""><dc:format>image/svg+xml</dc:format><dc:type
           rdf:resource="http://purl.org/dc/dcmitype/StillImage" /></cc:Work></rdf:RDF></metadata><defs
     id="defs19" /><sodipodi:namedview
     pagecolor="#ffffff"
     bordercolor="#666666"
     borderopacity="1"
     objecttolerance="10"
     gridtolerance="10"
     guidetolerance="10"
     inkscape:pageopacity="0"
     inkscape:pageshadow="2"
     inkscape:window-width="1920"
     inkscape:window-height="1017"
     id="namedview17"
     showgrid="false"
     inkscape:zoom="0.4609375"
     inkscape:cx="256"
     inkscape:cy="256"
     inkscape:window-x="-8"
     inkscape:window-y="-8"
     inkscape:window-maximized="1"
     inkscape:current-layer="g14" /><g
     id="g14"><circle
       style="fill:#008fff;fill-opacity:1"
       cx="256"
       cy="256"
       r="256"
       id="circle2" /><path
       style="fill:#FFFFFF;"
       d="M448.406,280.134l-23.735-49.843c-2.318-4.867-3.66-10.141-3.951-15.524l-2.67-49.401   c-0.651-12.04-7.766-22.73-18.624-27.973c-48.707-23.522-182.952-75.81-202.609,51.118l-46.508,14.687   c-3.739,1.181-7.777,0.993-11.39-0.531l-29.174-12.3c-6.228-2.626-11.112-7.682-13.521-13.996L89.806,160   c-1.629-4.266-6.427-6.403-10.661-4.774c-4.258,1.629-6.395,6.403-4.774,10.661l12.1,31.078c2.179,5.829,5.96,10.924,10.908,14.698   l15.898,12.126c4.364,3.329,6.79,8.608,6.472,14.088l-2.921,50.381c-0.337,5.807,5.275,10.132,10.804,8.329l12.237-3.99   c0,0,0.516,18.629,19.507,42.739c17.314,22.256,49.255,42.608,107.198,30.849c8.168-1.658,16.348,2.836,19.068,10.714   l11.435,33.132c2.421,7.016,9.192,11.507,16.603,11.105c31.003-1.681,109.636-16.82,136.494-124.743   C451.53,290.953,450.816,285.195,448.406,280.134z"
       id="path6" /></g></svg>