<?xml version="1.0" encoding="UTF-8" standalone="no"?>
<!-- Generator: Adobe Illustrator 19.0.0, SVG Export Plug-In . SVG Version: 6.00 Build 0)  -->

<svg
   xmlns:dc="http://purl.org/dc/elements/1.1/"
   xmlns:cc="http://creativecommons.org/ns#"
   xmlns:rdf="http://www.w3.org/1999/02/22-rdf-syntax-ns#"
   xmlns:svg="http://www.w3.org/2000/svg"
   xmlns="http://www.w3.org/2000/svg"
   xmlns:sodipodi="http://sodipodi.sourceforge.net/DTD/sodipodi-0.dtd"
   xmlns:inkscape="http://www.inkscape.org/namespaces/inkscape"
   version="1.1"
   id="Layer_1"
   x="0px"
   y="0px"
   viewBox="0 0 512 512"
   style="enable-background:new 0 0 512 512;"
   xml:space="preserve"
   sodipodi:docname="south-georgia-and-south-sandwich-islands.svg"
   inkscape:version="0.92.1 r15371"><metadata
     id="metadata4546"><rdf:RDF><cc:Work
         rdf:about=""><dc:format>image/svg+xml</dc:format><dc:type
           rdf:resource="http://purl.org/dc/dcmitype/StillImage" /></cc:Work></rdf:RDF></metadata><defs
     id="defs4544" /><sodipodi:namedview
     pagecolor="#ffffff"
     bordercolor="#666666"
     borderopacity="1"
     objecttolerance="10"
     gridtolerance="10"
     guidetolerance="10"
     inkscape:pageopacity="0"
     inkscape:pageshadow="2"
     inkscape:window-width="1249"
     inkscape:window-height="861"
     id="namedview4542"
     showgrid="false"
     inkscape:zoom="1"
     inkscape:cx="256"
     inkscape:cy="256"
     inkscape:window-x="239"
     inkscape:window-y="145"
     inkscape:window-maximized="0"
     inkscape:current-layer="Layer_1" /><path
     style="fill:#0052B4;"
     d="M512,256c0,141.384-114.616,256-256,256S0,397.384,0,256C0,256.061,256,0.028,256,0  C397.384,0,512,114.616,512,256z"
     id="path4485" /><g
     id="g4493"><path
       style="fill:#F0F0F0;"
       d="M256,0c-0.016,0-0.028,0-0.043,0H256L256,0z"
       id="path4487" /><path
       style="fill:#F0F0F0;"
       d="M255.315,256H256c0-0.23,0-0.454,0-0.685C255.772,255.544,255.544,255.772,255.315,256z"
       id="path4489" /><path
       style="fill:#F0F0F0;"
       d="M256,133.565C256,88.52,256,59.005,256,0h-0.043C114.592,0.024,0,114.629,0,256h133.565v-75.211   L208.777,256h46.539c0.228-0.228,0.456-0.456,0.685-0.685c0-17.247,0-32.636,0-46.537l-75.213-75.213H256z"
       id="path4491" /></g><g
     id="g4499"><path
       style="fill:#D80027;"
       d="M129.515,33.391C89.476,56.19,56.19,89.476,33.391,129.515V256h66.783V100.176v-0.002H256   c0-21.063,0-41.129,0-66.783H129.515z"
       id="path4495" /><path
       style="fill:#D80027;"
       d="M256,224.519l-90.953-90.953h-31.481v0.002L255.998,256H256C256,256,256,234.293,256,224.519z"
       id="path4497" /></g><path
     style="fill:#333333"
     d="m 445.217,333.913 0,-122.435 c 0,-59.639 -77.913,-77.913 -77.913,-77.913 0,0 -77.913,18.274 -77.913,77.913 l 0,122.435 z"
     id="path4503"
     inkscape:connector-curvature="0" /><g
     id="g4511" /><g
     id="g4513" /><g
     id="g4515" /><g
     id="g4517" /><g
     id="g4519" /><g
     id="g4521" /><g
     id="g4523" /><g
     id="g4525" /><g
     id="g4527" /><g
     id="g4529" /><g
     id="g4531" /><g
     id="g4533" /><g
     id="g4535" /><g
     id="g4537" /><g
     id="g4539" /><polygon
     style="fill:#ffda44"
     points="411.826,311.652 322.783,311.652 322.783,300.522 289.391,300.522 289.391,345.043 311.652,345.043 311.652,356.174 422.957,356.174 422.957,345.043 445.217,345.043 445.217,300.522 411.826,300.522 "
     id="polygon4501"
     transform="rotate(-180,367.304,328.348)" /><rect
     style="fill:#803300;fill-opacity:1;stroke-width:0.91927713"
     id="rect4548"
     width="36.226414"
     height="48.301888"
     x="347.77359"
     y="115.92455" /><path
     style="fill:#09d4ff;fill-opacity:1;stroke-width:0.31591114"
     d="m 343.52097,202.31656 v 41.99887 c 0,20.45796 22.66772,26.72648 22.66772,26.72648 0,0 22.66771,-6.26852 22.66771,-26.72648 v -41.99887 z"
     id="path4503-5"
     inkscape:connector-curvature="0" /></svg>