<?xml version="1.0" encoding="UTF-8" standalone="no"?>
<svg
   xmlns:dc="http://purl.org/dc/elements/1.1/"
   xmlns:cc="http://creativecommons.org/ns#"
   xmlns:rdf="http://www.w3.org/1999/02/22-rdf-syntax-ns#"
   xmlns:svg="http://www.w3.org/2000/svg"
   xmlns="http://www.w3.org/2000/svg"
   xmlns:sodipodi="http://sodipodi.sourceforge.net/DTD/sodipodi-0.dtd"
   xmlns:inkscape="http://www.inkscape.org/namespaces/inkscape"
   height="512pt"
   viewBox="0 0 512 512.00015"
   width="512pt"
   version="1.1"
   id="svg26"
   sodipodi:docname="photographer.svg"
   inkscape:version="0.92.1 r15371">
  <metadata
     id="metadata32">
    <rdf:RDF>
      <cc:Work
         rdf:about="">
        <dc:format>image/svg+xml</dc:format>
        <dc:type
           rdf:resource="http://purl.org/dc/dcmitype/StillImage" />
      </cc:Work>
    </rdf:RDF>
  </metadata>
  <defs
     id="defs30" />
  <sodipodi:namedview
     pagecolor="#ffffff"
     bordercolor="#666666"
     borderopacity="1"
     objecttolerance="10"
     gridtolerance="10"
     guidetolerance="10"
     inkscape:pageopacity="0"
     inkscape:pageshadow="2"
     inkscape:window-width="1236"
     inkscape:window-height="788"
     id="namedview28"
     showgrid="false"
     inkscape:zoom="0.34570313"
     inkscape:cx="-109.89699"
     inkscape:cy="341.33333"
     inkscape:window-x="424"
     inkscape:window-y="129"
     inkscape:window-maximized="0"
     inkscape:current-layer="svg26" />
  <path
     d="m512 256.269531c0 5.089844-.160156 10.199219-.46875 15.28125-.519531 8.667969-1.472656 17.21875-2.839844 25.628907-1.460937 9.011718-3.382812 17.859374-5.761718 26.53125-29.429688 107.628906-127.339844 186.9375-243.929688 188.269531-1.089844.019531-2.179688.019531-3.269531.019531-4.878907 0-9.761719-.140625-14.640625-.429688-.699219-.039062-1.390625-.082031-2.089844-.128906-1.167969-.070312-2.339844-.160156-3.5-.25-6.570312-.519531-13.109375-1.292968-19.621094-2.332031-12.777344-2.019531-25.398437-4.980469-37.730468-8.910156-7.089844-2.269531-14.089844-4.839844-20.957032-7.730469-92.421875-38.6875-157.300781-130.039062-157.191406-236.488281.148438-141.378907 114.890625-255.878907 256.269531-255.730469 126.121094.128906 230.851563 91.449219 251.871094 211.53125 1.140625 7.417969 2.269531 14.839844 2.910156 22.320312.058594.738282.121094 1.46875.179688 2.207032.257812 3.363281.460937 6.722656.578125 10.082031.132812 3.378906.191406 6.75.191406 10.128906zm0 0"
     fill="#ff6680"
     id="path2"
     style="fill:#800080" />
  <path
     d="m381 384.160156h-250v-25c0-69.035156 55.964844-125 125-125s125 55.964844 125 125zm0 0"
     fill="#ffdf4c"
     id="path6"
     style="fill:#0000ff" />
  <path
     d="m331 182.839844c0 41.421875-33.578125 75-75 75s-75-33.578125-75-75 33.578125-75 75-75 75 33.578125 75 75zm0 0"
     fill="#ffbfab"
     id="path10" />
  <path
     d="m296 304.230469h-80l14.171875-30h51.65625zm0 0"
     fill="#5c6b99"
     id="path14"
     style="fill:#1a1a1a" />
  <path
     d="M 196,294.08984 H 269.01698 316 v 70 H 196 Z"
     id="path18"
     style="fill:#1a1a1a"
     inkscape:connector-curvature="0"
     sodipodi:nodetypes="cccccc" />
  <path
     d="m276 329.089844c0 11.046875-8.953125 20-20 20s-20-8.953125-20-20c0-11.042969 8.953125-20 20-20s20 8.957031 20 20zm0 0"
     fill="#c0dafb"
     id="path22"
     style="fill:#cccccc" />
</svg>
